<mxfile host="Electron" modified="2023-12-30T06:51:23.343Z" agent="Mozilla/5.0 (Windows NT 10.0; Win64; x64) AppleWebKit/537.36 (KHTML, like Gecko) draw.io/21.6.8 Chrome/114.0.5735.289 Electron/25.5.0 Safari/537.36" etag="I8L52YWS205UTAn5h1Ns" version="21.6.8" type="device">
  <diagram name="第 1 页" id="OBqycXZr8JdtndVTNbmx">
    <mxGraphModel dx="601" dy="207" grid="1" gridSize="10" guides="1" tooltips="1" connect="1" arrows="1" fold="1" page="1" pageScale="1" pageWidth="1169" pageHeight="827" math="0" shadow="0">
      <root>
        <mxCell id="0" />
        <mxCell id="1" parent="0" />
        <mxCell id="tbbzO8ec8bhtpWq9yyYq-1" value="" style="rounded=1;whiteSpace=wrap;html=1;" vertex="1" parent="1">
          <mxGeometry x="200" y="160" width="40" height="160" as="geometry" />
        </mxCell>
        <mxCell id="tbbzO8ec8bhtpWq9yyYq-2" value="" style="rounded=1;whiteSpace=wrap;html=1;" vertex="1" parent="1">
          <mxGeometry x="210" y="170" width="40" height="160" as="geometry" />
        </mxCell>
        <mxCell id="tbbzO8ec8bhtpWq9yyYq-3" value="" style="rounded=1;whiteSpace=wrap;html=1;" vertex="1" parent="1">
          <mxGeometry x="220" y="180" width="40" height="160" as="geometry" />
        </mxCell>
        <mxCell id="tbbzO8ec8bhtpWq9yyYq-4" value="" style="rounded=1;whiteSpace=wrap;html=1;" vertex="1" parent="1">
          <mxGeometry x="230" y="190" width="40" height="160" as="geometry" />
        </mxCell>
        <mxCell id="tbbzO8ec8bhtpWq9yyYq-5" value="" style="rounded=1;whiteSpace=wrap;html=1;" vertex="1" parent="1">
          <mxGeometry x="240" y="200" width="40" height="160" as="geometry" />
        </mxCell>
        <mxCell id="tbbzO8ec8bhtpWq9yyYq-7" value="词元编码" style="text;html=1;strokeColor=none;fillColor=none;align=center;verticalAlign=middle;whiteSpace=wrap;rounded=0;" vertex="1" parent="1">
          <mxGeometry x="210" y="390" width="60" height="30" as="geometry" />
        </mxCell>
        <mxCell id="tbbzO8ec8bhtpWq9yyYq-8" value="Time" style="text;html=1;strokeColor=none;fillColor=none;align=center;verticalAlign=middle;whiteSpace=wrap;rounded=0;" vertex="1" parent="1">
          <mxGeometry x="120" y="240" width="60" height="30" as="geometry" />
        </mxCell>
        <mxCell id="tbbzO8ec8bhtpWq9yyYq-9" value="flies" style="text;html=1;strokeColor=none;fillColor=none;align=center;verticalAlign=middle;whiteSpace=wrap;rounded=0;" vertex="1" parent="1">
          <mxGeometry x="120" y="270" width="60" height="30" as="geometry" />
        </mxCell>
        <mxCell id="tbbzO8ec8bhtpWq9yyYq-10" value="like" style="text;html=1;strokeColor=none;fillColor=none;align=center;verticalAlign=middle;whiteSpace=wrap;rounded=0;" vertex="1" parent="1">
          <mxGeometry x="120" y="300" width="60" height="30" as="geometry" />
        </mxCell>
        <mxCell id="tbbzO8ec8bhtpWq9yyYq-11" value="an" style="text;html=1;strokeColor=none;fillColor=none;align=center;verticalAlign=middle;whiteSpace=wrap;rounded=0;" vertex="1" parent="1">
          <mxGeometry x="120" y="330" width="60" height="30" as="geometry" />
        </mxCell>
        <mxCell id="tbbzO8ec8bhtpWq9yyYq-12" value="arrow" style="text;html=1;strokeColor=none;fillColor=none;align=center;verticalAlign=middle;whiteSpace=wrap;rounded=0;" vertex="1" parent="1">
          <mxGeometry x="120" y="360" width="60" height="30" as="geometry" />
        </mxCell>
        <mxCell id="tbbzO8ec8bhtpWq9yyYq-13" value="" style="rounded=1;whiteSpace=wrap;html=1;" vertex="1" parent="1">
          <mxGeometry x="360" y="160" width="40" height="160" as="geometry" />
        </mxCell>
        <mxCell id="tbbzO8ec8bhtpWq9yyYq-14" value="" style="rounded=1;whiteSpace=wrap;html=1;" vertex="1" parent="1">
          <mxGeometry x="370" y="170" width="40" height="160" as="geometry" />
        </mxCell>
        <mxCell id="tbbzO8ec8bhtpWq9yyYq-15" value="" style="rounded=1;whiteSpace=wrap;html=1;" vertex="1" parent="1">
          <mxGeometry x="380" y="180" width="40" height="160" as="geometry" />
        </mxCell>
        <mxCell id="tbbzO8ec8bhtpWq9yyYq-16" value="" style="rounded=1;whiteSpace=wrap;html=1;" vertex="1" parent="1">
          <mxGeometry x="390" y="190" width="40" height="160" as="geometry" />
        </mxCell>
        <mxCell id="tbbzO8ec8bhtpWq9yyYq-17" value="" style="rounded=1;whiteSpace=wrap;html=1;" vertex="1" parent="1">
          <mxGeometry x="400" y="200" width="40" height="160" as="geometry" />
        </mxCell>
        <mxCell id="tbbzO8ec8bhtpWq9yyYq-18" value="" style="endArrow=none;html=1;rounded=0;entryX=1;entryY=0;entryDx=0;entryDy=0;exitX=0.02;exitY=0.083;exitDx=0;exitDy=0;exitPerimeter=0;" edge="1" parent="1" source="tbbzO8ec8bhtpWq9yyYq-16" target="tbbzO8ec8bhtpWq9yyYq-5">
          <mxGeometry width="50" height="50" relative="1" as="geometry">
            <mxPoint x="890" y="350" as="sourcePoint" />
            <mxPoint x="940" y="300" as="targetPoint" />
          </mxGeometry>
        </mxCell>
        <mxCell id="tbbzO8ec8bhtpWq9yyYq-19" value="" style="endArrow=none;html=1;rounded=0;exitX=1;exitY=1;exitDx=0;exitDy=0;entryX=-0.01;entryY=0.845;entryDx=0;entryDy=0;entryPerimeter=0;" edge="1" parent="1" source="tbbzO8ec8bhtpWq9yyYq-5" target="tbbzO8ec8bhtpWq9yyYq-17">
          <mxGeometry width="50" height="50" relative="1" as="geometry">
            <mxPoint x="890" y="350" as="sourcePoint" />
            <mxPoint x="940" y="300" as="targetPoint" />
          </mxGeometry>
        </mxCell>
        <mxCell id="tbbzO8ec8bhtpWq9yyYq-20" value="词元嵌入" style="text;html=1;strokeColor=none;fillColor=none;align=center;verticalAlign=middle;whiteSpace=wrap;rounded=0;" vertex="1" parent="1">
          <mxGeometry x="370" y="390" width="60" height="30" as="geometry" />
        </mxCell>
        <mxCell id="tbbzO8ec8bhtpWq9yyYq-21" value="+" style="text;strokeColor=none;fillColor=none;html=1;fontSize=24;fontStyle=1;verticalAlign=middle;align=center;" vertex="1" parent="1">
          <mxGeometry x="430" y="260" width="100" height="40" as="geometry" />
        </mxCell>
        <mxCell id="tbbzO8ec8bhtpWq9yyYq-22" value="" style="rounded=1;whiteSpace=wrap;html=1;" vertex="1" parent="1">
          <mxGeometry x="520" y="160" width="40" height="160" as="geometry" />
        </mxCell>
        <mxCell id="tbbzO8ec8bhtpWq9yyYq-23" value="" style="rounded=1;whiteSpace=wrap;html=1;" vertex="1" parent="1">
          <mxGeometry x="530" y="170" width="40" height="160" as="geometry" />
        </mxCell>
        <mxCell id="tbbzO8ec8bhtpWq9yyYq-24" value="" style="rounded=1;whiteSpace=wrap;html=1;" vertex="1" parent="1">
          <mxGeometry x="540" y="180" width="40" height="160" as="geometry" />
        </mxCell>
        <mxCell id="tbbzO8ec8bhtpWq9yyYq-25" value="" style="rounded=1;whiteSpace=wrap;html=1;" vertex="1" parent="1">
          <mxGeometry x="550" y="190" width="40" height="160" as="geometry" />
        </mxCell>
        <mxCell id="tbbzO8ec8bhtpWq9yyYq-29" value="" style="edgeStyle=orthogonalEdgeStyle;rounded=0;orthogonalLoop=1;jettySize=auto;html=1;" edge="1" parent="1" source="tbbzO8ec8bhtpWq9yyYq-26" target="tbbzO8ec8bhtpWq9yyYq-28">
          <mxGeometry relative="1" as="geometry" />
        </mxCell>
        <mxCell id="tbbzO8ec8bhtpWq9yyYq-26" value="" style="rounded=1;whiteSpace=wrap;html=1;" vertex="1" parent="1">
          <mxGeometry x="560" y="200" width="40" height="160" as="geometry" />
        </mxCell>
        <mxCell id="tbbzO8ec8bhtpWq9yyYq-27" value="位置嵌入" style="text;html=1;strokeColor=none;fillColor=none;align=center;verticalAlign=middle;whiteSpace=wrap;rounded=0;" vertex="1" parent="1">
          <mxGeometry x="530" y="390" width="60" height="30" as="geometry" />
        </mxCell>
        <mxCell id="tbbzO8ec8bhtpWq9yyYq-28" value="" style="rounded=1;whiteSpace=wrap;html=1;" vertex="1" parent="1">
          <mxGeometry x="680" y="280" width="40" height="80" as="geometry" />
        </mxCell>
        <mxCell id="tbbzO8ec8bhtpWq9yyYq-31" value="" style="rounded=1;whiteSpace=wrap;html=1;" vertex="1" parent="1">
          <mxGeometry x="760" y="280" width="40" height="80" as="geometry" />
        </mxCell>
        <mxCell id="tbbzO8ec8bhtpWq9yyYq-32" value="编码器堆" style="text;html=1;strokeColor=none;fillColor=none;align=center;verticalAlign=middle;whiteSpace=wrap;rounded=0;" vertex="1" parent="1">
          <mxGeometry x="710" y="384" width="60" height="30" as="geometry" />
        </mxCell>
        <mxCell id="tbbzO8ec8bhtpWq9yyYq-35" value="" style="endArrow=classic;html=1;rounded=0;exitX=1;exitY=0.5;exitDx=0;exitDy=0;" edge="1" parent="1" source="tbbzO8ec8bhtpWq9yyYq-31">
          <mxGeometry width="50" height="50" relative="1" as="geometry">
            <mxPoint x="890" y="340" as="sourcePoint" />
            <mxPoint x="850" y="320" as="targetPoint" />
          </mxGeometry>
        </mxCell>
        <mxCell id="tbbzO8ec8bhtpWq9yyYq-36" value="" style="rounded=1;whiteSpace=wrap;html=1;" vertex="1" parent="1">
          <mxGeometry x="850" y="160" width="40" height="160" as="geometry" />
        </mxCell>
        <mxCell id="tbbzO8ec8bhtpWq9yyYq-37" value="" style="rounded=1;whiteSpace=wrap;html=1;" vertex="1" parent="1">
          <mxGeometry x="860" y="170" width="40" height="160" as="geometry" />
        </mxCell>
        <mxCell id="tbbzO8ec8bhtpWq9yyYq-38" value="" style="rounded=1;whiteSpace=wrap;html=1;" vertex="1" parent="1">
          <mxGeometry x="870" y="180" width="40" height="160" as="geometry" />
        </mxCell>
        <mxCell id="tbbzO8ec8bhtpWq9yyYq-39" value="" style="rounded=1;whiteSpace=wrap;html=1;" vertex="1" parent="1">
          <mxGeometry x="880" y="190" width="40" height="160" as="geometry" />
        </mxCell>
        <mxCell id="tbbzO8ec8bhtpWq9yyYq-40" value="" style="rounded=1;whiteSpace=wrap;html=1;" vertex="1" parent="1">
          <mxGeometry x="890" y="200" width="40" height="160" as="geometry" />
        </mxCell>
        <mxCell id="tbbzO8ec8bhtpWq9yyYq-41" value="隐空间" style="text;html=1;strokeColor=none;fillColor=none;align=center;verticalAlign=middle;whiteSpace=wrap;rounded=0;" vertex="1" parent="1">
          <mxGeometry x="860" y="384" width="60" height="30" as="geometry" />
        </mxCell>
        <mxCell id="tbbzO8ec8bhtpWq9yyYq-42" value="..." style="text;strokeColor=none;fillColor=none;html=1;fontSize=24;fontStyle=1;verticalAlign=middle;align=center;" vertex="1" parent="1">
          <mxGeometry x="725" y="315" width="30" height="10" as="geometry" />
        </mxCell>
        <mxCell id="tbbzO8ec8bhtpWq9yyYq-43" value="" style="endArrow=classic;html=1;rounded=0;exitX=1;exitY=0.5;exitDx=0;exitDy=0;" edge="1" parent="1">
          <mxGeometry width="50" height="50" relative="1" as="geometry">
            <mxPoint x="930" y="320" as="sourcePoint" />
            <mxPoint x="980" y="320" as="targetPoint" />
          </mxGeometry>
        </mxCell>
        <mxCell id="tbbzO8ec8bhtpWq9yyYq-44" value="K,V" style="rounded=1;whiteSpace=wrap;html=1;" vertex="1" parent="1">
          <mxGeometry x="980" y="305" width="70" height="30" as="geometry" />
        </mxCell>
        <mxCell id="tbbzO8ec8bhtpWq9yyYq-45" value="" style="endArrow=none;html=1;rounded=0;exitX=0;exitY=0;exitDx=0;exitDy=0;" edge="1" parent="1" source="tbbzO8ec8bhtpWq9yyYq-28">
          <mxGeometry width="50" height="50" relative="1" as="geometry">
            <mxPoint x="770" y="150" as="sourcePoint" />
            <mxPoint x="640" y="160" as="targetPoint" />
          </mxGeometry>
        </mxCell>
        <mxCell id="tbbzO8ec8bhtpWq9yyYq-46" value="" style="endArrow=none;html=1;rounded=0;exitX=1;exitY=0;exitDx=0;exitDy=0;" edge="1" parent="1" source="tbbzO8ec8bhtpWq9yyYq-31">
          <mxGeometry width="50" height="50" relative="1" as="geometry">
            <mxPoint x="690" y="290" as="sourcePoint" />
            <mxPoint x="840" y="160" as="targetPoint" />
          </mxGeometry>
        </mxCell>
        <mxCell id="tbbzO8ec8bhtpWq9yyYq-47" value="" style="rounded=1;whiteSpace=wrap;html=1;" vertex="1" parent="1">
          <mxGeometry x="635" y="40" width="210" height="130" as="geometry" />
        </mxCell>
        <mxCell id="tbbzO8ec8bhtpWq9yyYq-48" value="多头注意力" style="rounded=1;whiteSpace=wrap;html=1;" vertex="1" parent="1">
          <mxGeometry x="660" y="55" width="40" height="80" as="geometry" />
        </mxCell>
        <mxCell id="tbbzO8ec8bhtpWq9yyYq-49" value="" style="endArrow=classic;html=1;rounded=0;exitX=1;exitY=0;exitDx=0;exitDy=0;" edge="1" parent="1" source="tbbzO8ec8bhtpWq9yyYq-48">
          <mxGeometry width="50" height="50" relative="1" as="geometry">
            <mxPoint x="1010" y="100" as="sourcePoint" />
            <mxPoint x="740" y="55" as="targetPoint" />
          </mxGeometry>
        </mxCell>
        <mxCell id="tbbzO8ec8bhtpWq9yyYq-51" value="" style="endArrow=classic;html=1;rounded=0;exitX=1;exitY=0;exitDx=0;exitDy=0;" edge="1" parent="1">
          <mxGeometry width="50" height="50" relative="1" as="geometry">
            <mxPoint x="700" y="80" as="sourcePoint" />
            <mxPoint x="740" y="80" as="targetPoint" />
          </mxGeometry>
        </mxCell>
        <mxCell id="tbbzO8ec8bhtpWq9yyYq-52" value="" style="endArrow=classic;html=1;rounded=0;exitX=1;exitY=0;exitDx=0;exitDy=0;" edge="1" parent="1">
          <mxGeometry width="50" height="50" relative="1" as="geometry">
            <mxPoint x="700" y="104.76" as="sourcePoint" />
            <mxPoint x="740" y="104.76" as="targetPoint" />
          </mxGeometry>
        </mxCell>
        <mxCell id="tbbzO8ec8bhtpWq9yyYq-53" value="" style="endArrow=classic;html=1;rounded=0;exitX=1;exitY=0;exitDx=0;exitDy=0;" edge="1" parent="1">
          <mxGeometry width="50" height="50" relative="1" as="geometry">
            <mxPoint x="700" y="135" as="sourcePoint" />
            <mxPoint x="740" y="135" as="targetPoint" />
          </mxGeometry>
        </mxCell>
        <mxCell id="tbbzO8ec8bhtpWq9yyYq-54" value="前馈层" style="rounded=1;whiteSpace=wrap;html=1;" vertex="1" parent="1">
          <mxGeometry x="740" y="50" width="90" height="15" as="geometry" />
        </mxCell>
        <mxCell id="tbbzO8ec8bhtpWq9yyYq-55" value="前馈层" style="rounded=1;whiteSpace=wrap;html=1;" vertex="1" parent="1">
          <mxGeometry x="740" y="70" width="90" height="15" as="geometry" />
        </mxCell>
        <mxCell id="tbbzO8ec8bhtpWq9yyYq-56" value="前馈层" style="rounded=1;whiteSpace=wrap;html=1;" vertex="1" parent="1">
          <mxGeometry x="740" y="97.5" width="90" height="15" as="geometry" />
        </mxCell>
        <mxCell id="tbbzO8ec8bhtpWq9yyYq-57" value="前馈层" style="rounded=1;whiteSpace=wrap;html=1;" vertex="1" parent="1">
          <mxGeometry x="740" y="130" width="90" height="15" as="geometry" />
        </mxCell>
        <mxCell id="tbbzO8ec8bhtpWq9yyYq-58" value="" style="endArrow=classic;html=1;rounded=0;entryX=-0.002;entryY=0.103;entryDx=0;entryDy=0;entryPerimeter=0;" edge="1" parent="1" target="tbbzO8ec8bhtpWq9yyYq-47">
          <mxGeometry width="50" height="50" relative="1" as="geometry">
            <mxPoint x="600" y="53" as="sourcePoint" />
            <mxPoint x="530" y="20" as="targetPoint" />
          </mxGeometry>
        </mxCell>
        <mxCell id="tbbzO8ec8bhtpWq9yyYq-60" value="" style="endArrow=classic;html=1;rounded=0;" edge="1" parent="1">
          <mxGeometry width="50" height="50" relative="1" as="geometry">
            <mxPoint x="600" y="80" as="sourcePoint" />
            <mxPoint x="630" y="80" as="targetPoint" />
            <Array as="points">
              <mxPoint x="620" y="80" />
            </Array>
          </mxGeometry>
        </mxCell>
        <mxCell id="tbbzO8ec8bhtpWq9yyYq-61" value="" style="endArrow=classic;html=1;rounded=0;" edge="1" parent="1">
          <mxGeometry width="50" height="50" relative="1" as="geometry">
            <mxPoint x="600" y="104.89" as="sourcePoint" />
            <mxPoint x="630" y="104.89" as="targetPoint" />
            <Array as="points">
              <mxPoint x="620" y="104.89" />
            </Array>
          </mxGeometry>
        </mxCell>
        <mxCell id="tbbzO8ec8bhtpWq9yyYq-62" value="" style="endArrow=classic;html=1;rounded=0;" edge="1" parent="1">
          <mxGeometry width="50" height="50" relative="1" as="geometry">
            <mxPoint x="600" y="135" as="sourcePoint" />
            <mxPoint x="630" y="135" as="targetPoint" />
            <Array as="points">
              <mxPoint x="620" y="135" />
            </Array>
          </mxGeometry>
        </mxCell>
        <mxCell id="tbbzO8ec8bhtpWq9yyYq-63" value="Xin" style="text;html=1;strokeColor=none;fillColor=none;align=center;verticalAlign=middle;whiteSpace=wrap;rounded=0;" vertex="1" parent="1">
          <mxGeometry x="585" y="25" width="60" height="30" as="geometry" />
        </mxCell>
        <mxCell id="tbbzO8ec8bhtpWq9yyYq-64" value="" style="endArrow=classic;html=1;rounded=0;" edge="1" parent="1">
          <mxGeometry width="50" height="50" relative="1" as="geometry">
            <mxPoint x="845" y="79.6" as="sourcePoint" />
            <mxPoint x="875" y="79.6" as="targetPoint" />
            <Array as="points">
              <mxPoint x="865" y="79.6" />
            </Array>
          </mxGeometry>
        </mxCell>
        <mxCell id="tbbzO8ec8bhtpWq9yyYq-65" value="" style="endArrow=classic;html=1;rounded=0;" edge="1" parent="1">
          <mxGeometry width="50" height="50" relative="1" as="geometry">
            <mxPoint x="845" y="104.49" as="sourcePoint" />
            <mxPoint x="875" y="104.49" as="targetPoint" />
            <Array as="points">
              <mxPoint x="865" y="104.49" />
            </Array>
          </mxGeometry>
        </mxCell>
        <mxCell id="tbbzO8ec8bhtpWq9yyYq-66" value="" style="endArrow=classic;html=1;rounded=0;" edge="1" parent="1">
          <mxGeometry width="50" height="50" relative="1" as="geometry">
            <mxPoint x="845" y="134.6" as="sourcePoint" />
            <mxPoint x="875" y="134.6" as="targetPoint" />
            <Array as="points">
              <mxPoint x="865" y="134.6" />
            </Array>
          </mxGeometry>
        </mxCell>
        <mxCell id="tbbzO8ec8bhtpWq9yyYq-67" value="Xout" style="text;html=1;strokeColor=none;fillColor=none;align=center;verticalAlign=middle;whiteSpace=wrap;rounded=0;" vertex="1" parent="1">
          <mxGeometry x="830" y="24.6" width="60" height="30" as="geometry" />
        </mxCell>
        <mxCell id="tbbzO8ec8bhtpWq9yyYq-68" value="" style="endArrow=classic;html=1;rounded=0;" edge="1" parent="1">
          <mxGeometry width="50" height="50" relative="1" as="geometry">
            <mxPoint x="845" y="54.99999999999999" as="sourcePoint" />
            <mxPoint x="875" y="54.99999999999999" as="targetPoint" />
            <Array as="points">
              <mxPoint x="865" y="54.99999999999999" />
            </Array>
          </mxGeometry>
        </mxCell>
      </root>
    </mxGraphModel>
  </diagram>
</mxfile>
